<?xml version="1.0" encoding="UTF-8" standalone="no"?>
<!-- Generator: Gravit.io -->
<svg xmlns="http://www.w3.org/2000/svg" xmlns:xlink="http://www.w3.org/1999/xlink" style="isolation:isolate" viewBox="779.3 335 288.026 44.9" width="288.026pt" height="44.9pt"><defs><clipPath id="_clipPath_zuqA9EHki5zi4GnaHe8EiwIHfQGhxuDm"><rect x="779.3" y="335" width="288.026" height="44.9"/></clipPath></defs><g clip-path="url(#_clipPath_zuqA9EHki5zi4GnaHe8EiwIHfQGhxuDm)"><clipPath id="_clipPath_iDSzyC8JZu4JUIXdLveOSm0jBJnmRl2p"><rect x="779.3" y="335" width="288.026" height="44.9" transform="matrix(1,0,0,1,0,0)" fill="rgb(0,0,0)"/></clipPath><g clip-path="url(#_clipPath_iDSzyC8JZu4JUIXdLveOSm0jBJnmRl2p)"><path d=" M 1056.473 379.9 L 1056.473 379.9 L 1056.473 379.9 Q 1053.992 379.9 1051.79 379.249 L 1051.79 379.249 L 1051.79 379.249 Q 1049.589 378.598 1047.728 377.388 L 1047.728 377.388 L 1047.728 377.388 Q 1045.868 376.179 1044.504 374.505 L 1044.504 374.505 L 1048.101 370.908 L 1048.101 370.908 Q 1049.713 372.892 1051.821 373.853 L 1051.821 373.853 L 1051.821 373.853 Q 1053.93 374.815 1056.535 374.815 L 1056.535 374.815 L 1056.535 374.815 Q 1059.139 374.815 1060.566 373.915 L 1060.566 373.915 L 1060.566 373.915 Q 1061.992 373.016 1061.992 371.404 L 1061.992 371.404 L 1061.992 371.404 Q 1061.992 369.791 1060.845 368.892 L 1060.845 368.892 L 1060.845 368.892 Q 1059.698 367.993 1057.899 367.404 L 1057.899 367.404 L 1057.899 367.404 Q 1056.101 366.815 1054.085 366.225 L 1054.085 366.225 L 1054.085 366.225 Q 1052.07 365.636 1050.271 364.706 L 1050.271 364.706 L 1050.271 364.706 Q 1048.473 363.776 1047.325 362.163 L 1047.325 362.163 L 1047.325 362.163 Q 1046.178 360.551 1046.178 357.884 L 1046.178 357.884 L 1046.178 357.884 Q 1046.178 355.217 1047.48 353.264 L 1047.48 353.264 L 1047.48 353.264 Q 1048.783 351.31 1051.108 350.256 L 1051.108 350.256 L 1051.108 350.256 Q 1053.434 349.202 1056.721 349.202 L 1056.721 349.202 L 1056.721 349.202 Q 1060.194 349.202 1062.891 350.411 L 1062.891 350.411 L 1062.891 350.411 Q 1065.589 351.62 1067.326 354.039 L 1067.326 354.039 L 1063.729 357.636 L 1063.729 357.636 Q 1062.488 356.024 1060.659 355.155 L 1060.659 355.155 L 1060.659 355.155 Q 1058.829 354.287 1056.535 354.287 L 1056.535 354.287 L 1056.535 354.287 Q 1054.116 354.287 1052.845 355.124 L 1052.845 355.124 L 1052.845 355.124 Q 1051.573 355.962 1051.573 357.45 L 1051.573 357.45 L 1051.573 357.45 Q 1051.573 358.938 1052.69 359.745 L 1052.69 359.745 L 1052.69 359.745 Q 1053.806 360.551 1055.635 361.109 L 1055.635 361.109 L 1055.635 361.109 Q 1057.465 361.667 1059.45 362.256 L 1059.45 362.256 L 1059.45 362.256 Q 1061.434 362.845 1063.233 363.838 L 1063.233 363.838 L 1063.233 363.838 Q 1065.031 364.83 1066.178 366.504 L 1066.178 366.504 L 1066.178 366.504 Q 1067.326 368.179 1067.326 370.908 L 1067.326 370.908 L 1067.326 370.908 Q 1067.326 375.063 1064.38 377.481 L 1064.38 377.481 L 1064.38 377.481 Q 1061.434 379.9 1056.473 379.9 Z " fill="rgb(255,255,255)"/><g><path d=" M 1034.726 379.28 L 1029.144 379.28 L 1029.144 349.822 L 1034.726 349.822 L 1034.726 379.28 Z " fill="rgb(255,255,255)"/><path d=" M 1031.935 343.93 L 1031.935 343.93 L 1031.935 343.93 Q 1030.384 343.93 1029.392 342.907 L 1029.392 342.907 L 1029.392 342.907 Q 1028.4 341.884 1028.4 340.333 L 1028.4 340.333 L 1028.4 340.333 Q 1028.4 338.845 1029.392 337.822 L 1029.392 337.822 L 1029.392 337.822 Q 1030.384 336.798 1031.935 336.798 L 1031.935 336.798 L 1031.935 336.798 Q 1033.485 336.798 1034.477 337.822 L 1034.477 337.822 L 1034.477 337.822 Q 1035.47 338.845 1035.47 340.333 L 1035.47 340.333 L 1035.47 340.333 Q 1035.47 341.884 1034.477 342.907 L 1034.477 342.907 L 1034.477 342.907 Q 1033.485 343.93 1031.935 343.93 Z " fill="rgb(255,255,255)"/></g><path d=" M 1007.831 379.9 L 1007.831 379.9 L 1007.831 379.9 Q 1005.35 379.9 1003.149 379.249 L 1003.149 379.249 L 1003.149 379.249 Q 1000.947 378.598 999.087 377.388 L 999.087 377.388 L 999.087 377.388 Q 997.226 376.179 995.862 374.505 L 995.862 374.505 L 999.459 370.908 L 999.459 370.908 Q 1001.071 372.892 1003.18 373.853 L 1003.18 373.853 L 1003.18 373.853 Q 1005.288 374.815 1007.893 374.815 L 1007.893 374.815 L 1007.893 374.815 Q 1010.498 374.815 1011.924 373.915 L 1011.924 373.915 L 1011.924 373.915 Q 1013.351 373.016 1013.351 371.404 L 1013.351 371.404 L 1013.351 371.404 Q 1013.351 369.791 1012.203 368.892 L 1012.203 368.892 L 1012.203 368.892 Q 1011.056 367.993 1009.257 367.404 L 1009.257 367.404 L 1009.257 367.404 Q 1007.459 366.815 1005.443 366.225 L 1005.443 366.225 L 1005.443 366.225 Q 1003.428 365.636 1001.629 364.706 L 1001.629 364.706 L 1001.629 364.706 Q 999.831 363.776 998.684 362.163 L 998.684 362.163 L 998.684 362.163 Q 997.536 360.551 997.536 357.884 L 997.536 357.884 L 997.536 357.884 Q 997.536 355.217 998.839 353.264 L 998.839 353.264 L 998.839 353.264 Q 1000.141 351.31 1002.467 350.256 L 1002.467 350.256 L 1002.467 350.256 Q 1004.792 349.202 1008.079 349.202 L 1008.079 349.202 L 1008.079 349.202 Q 1011.552 349.202 1014.25 350.411 L 1014.25 350.411 L 1014.25 350.411 Q 1016.948 351.62 1018.684 354.039 L 1018.684 354.039 L 1015.087 357.636 L 1015.087 357.636 Q 1013.847 356.024 1012.017 355.155 L 1012.017 355.155 L 1012.017 355.155 Q 1010.188 354.287 1007.893 354.287 L 1007.893 354.287 L 1007.893 354.287 Q 1005.474 354.287 1004.203 355.124 L 1004.203 355.124 L 1004.203 355.124 Q 1002.932 355.962 1002.932 357.45 L 1002.932 357.45 L 1002.932 357.45 Q 1002.932 358.938 1004.048 359.745 L 1004.048 359.745 L 1004.048 359.745 Q 1005.164 360.551 1006.994 361.109 L 1006.994 361.109 L 1006.994 361.109 Q 1008.823 361.667 1010.808 362.256 L 1010.808 362.256 L 1010.808 362.256 Q 1012.792 362.845 1014.591 363.838 L 1014.591 363.838 L 1014.591 363.838 Q 1016.389 364.83 1017.537 366.504 L 1017.537 366.504 L 1017.537 366.504 Q 1018.684 368.179 1018.684 370.908 L 1018.684 370.908 L 1018.684 370.908 Q 1018.684 375.063 1015.738 377.481 L 1015.738 377.481 L 1015.738 377.481 Q 1012.792 379.9 1007.831 379.9 Z " fill="rgb(255,255,255)"/><g><path d=" M 972.688 379.9 L 972.688 379.9 L 972.688 379.9 Q 968.347 379.9 964.874 377.853 L 964.874 377.853 L 964.874 377.853 Q 961.401 375.807 959.355 372.303 L 959.355 372.303 L 959.355 372.303 Q 957.308 368.799 957.308 364.458 L 957.308 364.458 L 957.308 364.458 Q 957.308 360.179 959.355 356.737 L 959.355 356.737 L 959.355 356.737 Q 961.401 353.295 964.874 351.248 L 964.874 351.248 L 964.874 351.248 Q 968.347 349.202 972.688 349.202 L 972.688 349.202 L 972.688 349.202 Q 976.967 349.202 980.471 351.217 L 980.471 351.217 L 980.471 351.217 Q 983.975 353.233 986.022 356.706 L 986.022 356.706 L 986.022 356.706 Q 988.068 360.179 988.068 364.458 L 988.068 364.458 L 988.068 364.458 Q 988.068 368.799 986.022 372.303 L 986.022 372.303 L 986.022 372.303 Q 983.975 375.807 980.471 377.853 L 980.471 377.853 L 980.471 377.853 Q 976.967 379.9 972.688 379.9 Z " fill="rgb(255,255,255)"/><path d=" M 972.688 374.505 L 972.688 374.505 L 972.688 374.505 Q 975.479 374.505 977.65 373.202 L 977.65 373.202 L 977.65 373.202 Q 979.82 371.9 981.061 369.636 L 981.061 369.636 L 981.061 369.636 Q 982.301 367.373 982.301 364.458 L 982.301 364.458 L 982.301 364.458 Q 982.301 361.605 981.03 359.373 L 981.03 359.373 L 981.03 359.373 Q 979.758 357.14 977.619 355.869 L 977.619 355.869 L 977.619 355.869 Q 975.479 354.597 972.688 354.597 L 972.688 354.597 L 972.688 354.597 Q 969.898 354.597 967.727 355.869 L 967.727 355.869 L 967.727 355.869 Q 965.556 357.14 964.316 359.373 L 964.316 359.373 L 964.316 359.373 Q 963.076 361.605 963.076 364.458 L 963.076 364.458 L 963.076 364.458 Q 963.076 367.373 964.316 369.636 L 964.316 369.636 L 964.316 369.636 Q 965.556 371.9 967.727 373.202 L 967.727 373.202 L 967.727 373.202 Q 969.898 374.505 972.688 374.505 Z " fill="rgb(0,0,0)"/></g><g><path d=" M 947.53 379.28 L 941.949 379.28 L 941.949 362.101 L 941.949 362.101 Q 941.949 358.752 939.84 356.582 L 939.84 356.582 L 939.84 356.582 Q 937.732 354.411 934.383 354.411 L 934.383 354.411 L 934.383 354.411 Q 932.15 354.411 930.414 355.403 L 930.414 355.403 L 930.414 355.403 Q 928.677 356.396 927.685 358.132 L 927.685 358.132 L 927.685 358.132 Q 926.693 359.869 926.693 362.101 L 926.693 362.101 L 924.398 360.799 L 924.398 360.799 Q 924.398 357.45 925.887 354.845 L 925.887 354.845 L 925.887 354.845 Q 927.375 352.241 930.042 350.721 L 930.042 350.721 L 930.042 350.721 Q 932.708 349.202 936.057 349.202 L 936.057 349.202 L 936.057 349.202 Q 939.406 349.202 941.98 350.876 L 941.98 350.876 L 941.98 350.876 Q 944.553 352.551 946.042 355.248 L 946.042 355.248 L 946.042 355.248 Q 947.53 357.946 947.53 360.985 L 947.53 360.985 L 947.53 379.28 Z " fill="rgb(255,255,255)"/><path d=" M 926.693 379.28 L 921.111 379.28 L 921.111 349.822 L 926.693 349.822 L 926.693 379.28 Z " fill="rgb(255,255,255)"/></g><g><path d=" M 895.333 379.9 L 895.333 379.9 L 895.333 379.9 Q 890.992 379.9 887.519 377.853 L 887.519 377.853 L 887.519 377.853 Q 884.046 375.807 881.999 372.303 L 881.999 372.303 L 881.999 372.303 Q 879.953 368.799 879.953 364.458 L 879.953 364.458 L 879.953 364.458 Q 879.953 360.179 881.999 356.737 L 881.999 356.737 L 881.999 356.737 Q 884.046 353.295 887.519 351.248 L 887.519 351.248 L 887.519 351.248 Q 890.992 349.202 895.333 349.202 L 895.333 349.202 L 895.333 349.202 Q 899.612 349.202 903.116 351.217 L 903.116 351.217 L 903.116 351.217 Q 906.62 353.233 908.667 356.706 L 908.667 356.706 L 908.667 356.706 Q 910.713 360.179 910.713 364.458 L 910.713 364.458 L 910.713 364.458 Q 910.713 368.799 908.667 372.303 L 908.667 372.303 L 908.667 372.303 Q 906.62 375.807 903.116 377.853 L 903.116 377.853 L 903.116 377.853 Q 899.612 379.9 895.333 379.9 Z " fill="rgb(255,255,255)"/><path d=" M 895.333 374.505 L 895.333 374.505 L 895.333 374.505 Q 898.124 374.505 900.294 373.202 L 900.294 373.202 L 900.294 373.202 Q 902.465 371.9 903.705 369.636 L 903.705 369.636 L 903.705 369.636 Q 904.946 367.373 904.946 364.458 L 904.946 364.458 L 904.946 364.458 Q 904.946 361.605 903.674 359.373 L 903.674 359.373 L 903.674 359.373 Q 902.403 357.14 900.263 355.869 L 900.263 355.869 L 900.263 355.869 Q 898.124 354.597 895.333 354.597 L 895.333 354.597 L 895.333 354.597 Q 892.542 354.597 890.372 355.869 L 890.372 355.869 L 890.372 355.869 Q 888.201 357.14 886.961 359.373 L 886.961 359.373 L 886.961 359.373 Q 885.72 361.605 885.72 364.458 L 885.72 364.458 L 885.72 364.458 Q 885.72 367.373 886.961 369.636 L 886.961 369.636 L 886.961 369.636 Q 888.201 371.9 890.372 373.202 L 890.372 373.202 L 890.372 373.202 Q 892.542 374.505 895.333 374.505 Z " fill="rgb(0,0,0)"/><path d=" M 893.378 357.14 L 893.378 365.466 L 893.811 365.948 L 898.431 370.568 L 900.646 368.353 L 896.458 364.166 L 896.458 357.14 L 893.378 357.14 Z " fill="rgb(255,255,255)"/></g><g><path d=" M 859.384 379.28 L 853.803 379.28 L 853.803 349.822 L 859.384 349.822 L 859.384 379.28 Z " fill="rgb(255,255,255)"/><path d=" M 859.384 362.473 L 859.384 362.473 L 857.276 361.543 L 857.276 361.543 Q 857.276 355.9 859.88 352.551 L 859.88 352.551 L 859.88 352.551 Q 862.485 349.202 867.384 349.202 L 867.384 349.202 L 867.384 349.202 Q 869.617 349.202 871.415 349.977 L 871.415 349.977 L 871.415 349.977 Q 873.214 350.752 874.764 352.551 L 874.764 352.551 L 871.105 356.334 L 871.105 356.334 Q 870.175 355.341 869.059 354.907 L 869.059 354.907 L 869.059 354.907 Q 867.942 354.473 866.454 354.473 L 866.454 354.473 L 866.454 354.473 Q 863.353 354.473 861.369 356.458 L 861.369 356.458 L 861.369 356.458 Q 859.384 358.442 859.384 362.473 Z " fill="rgb(255,255,255)"/></g><g><path d=" M 842.102 379.28 L 836.521 379.28 L 836.521 362.101 L 836.521 362.101 Q 836.521 358.752 834.412 356.582 L 834.412 356.582 L 834.412 356.582 Q 832.304 354.411 828.955 354.411 L 828.955 354.411 L 828.955 354.411 Q 826.722 354.411 824.986 355.403 L 824.986 355.403 L 824.986 355.403 Q 823.249 356.396 822.257 358.132 L 822.257 358.132 L 822.257 358.132 Q 821.265 359.869 821.265 362.101 L 821.265 362.101 L 818.97 360.799 L 818.97 360.799 Q 818.97 357.45 820.458 354.845 L 820.458 354.845 L 820.458 354.845 Q 821.947 352.241 824.613 350.721 L 824.613 350.721 L 824.613 350.721 Q 827.28 349.202 830.629 349.202 L 830.629 349.202 L 830.629 349.202 Q 833.978 349.202 836.552 350.69 L 836.552 350.69 L 836.552 350.69 Q 839.125 352.179 840.614 354.845 L 840.614 354.845 L 840.614 354.845 Q 842.102 357.512 842.102 360.985 L 842.102 360.985 L 842.102 379.28 Z " fill="rgb(255,255,255)"/><path d=" M 821.265 379.28 L 815.683 379.28 L 815.683 335 L 821.265 335 L 821.265 379.28 Z " fill="rgb(255,255,255)"/></g><path d=" M 794.68 379.9 L 794.68 379.9 L 794.68 379.9 Q 790.339 379.9 786.835 377.853 L 786.835 377.853 L 786.835 377.853 Q 783.331 375.807 781.316 372.303 L 781.316 372.303 L 781.316 372.303 Q 779.3 368.799 779.3 364.52 L 779.3 364.52 L 779.3 364.52 Q 779.3 360.179 781.316 356.706 L 781.316 356.706 L 781.316 356.706 Q 783.331 353.233 786.835 351.217 L 786.835 351.217 L 786.835 351.217 Q 790.339 349.202 794.68 349.202 L 794.68 349.202 L 794.68 349.202 Q 798.091 349.202 801.006 350.473 L 801.006 350.473 L 801.006 350.473 Q 803.921 351.744 806.029 354.163 L 806.029 354.163 L 802.308 357.884 L 802.308 357.884 Q 800.944 356.272 798.99 355.434 L 798.99 355.434 L 798.99 355.434 Q 797.037 354.597 794.68 354.597 L 794.68 354.597 L 794.68 354.597 Q 791.889 354.597 789.719 355.869 L 789.719 355.869 L 789.719 355.869 Q 787.548 357.14 786.308 359.373 L 786.308 359.373 L 786.308 359.373 Q 785.068 361.605 785.068 364.52 L 785.068 364.52 L 785.068 364.52 Q 785.068 367.435 786.308 369.667 L 786.308 369.667 L 786.308 369.667 Q 787.548 371.9 789.719 373.202 L 789.719 373.202 L 789.719 373.202 Q 791.889 374.505 794.68 374.505 L 794.68 374.505 L 794.68 374.505 Q 797.037 374.505 798.99 373.667 L 798.99 373.667 L 798.99 373.667 Q 800.944 372.83 802.37 371.218 L 802.37 371.218 L 806.029 374.939 L 806.029 374.939 Q 803.983 377.295 801.037 378.598 L 801.037 378.598 L 801.037 378.598 Q 798.091 379.9 794.68 379.9 Z " fill="rgb(255,255,255)"/></g></g></svg>